<?xml version="1.0" standalone="no"?>
<!DOCTYPE svg PUBLIC "-//W3C//DTD SVG 20010904//EN"
 "http://www.w3.org/TR/2001/REC-SVG-20010904/DTD/svg10.dtd">
<svg version="1.0" xmlns="http://www.w3.org/2000/svg"
 width="700.000000pt" height="700.000000pt" viewBox="0 0 700.000000 700.000000"
 preserveAspectRatio="xMidYMid meet">
<metadata>
Created by potrace 1.14, written by Peter Selinger 2001-2017
</metadata>
<g transform="translate(0.000000,700.000000) scale(0.100000,-0.100000)"
fill="#000000" stroke="none">
<path d="M785 5211 c-3 -2 -5 -334 -5 -738 l0 -733 -40 0 -40 0 0 -285 0 -285
41 0 40 0 -4 -537 c-2 -296 -6 -548 -10 -561 -37 -132 -120 -300 -207 -417
-33 -44 -109 -129 -169 -190 l-109 -110 149 -175 c81 -96 153 -176 158 -178 6
-2 21 7 34 20 13 13 57 52 98 88 131 115 322 313 382 397 122 171 201 370 221
553 3 25 5 285 5 578 l1 532 290 0 c160 0 290 -3 290 -8 0 -8 -194 -552 -209
-587 -5 -11 -34 -92 -66 -180 -31 -88 -70 -195 -86 -237 -16 -43 -29 -80 -29
-83 0 -3 125 -5 279 -5 l278 0 84 243 c45 133 104 303 130 377 l46 135 538 0
537 0 28 -75 c15 -41 75 -211 135 -378 l108 -302 294 0 c161 0 293 2 293 5 0
6 -124 343 -145 395 -8 19 -33 85 -55 145 -22 61 -44 117 -47 125 -3 8 -7 20
-9 25 -1 6 -34 94 -73 196 -39 103 -71 192 -71 198 0 8 174 11 640 11 l640 0
0 -550 0 -550 265 0 265 0 0 550 0 550 310 0 310 0 0 285 0 285 -310 0 -310 0
0 479 0 479 386 0 c212 0 387 1 389 3 3 4 15 135 30 329 3 41 8 100 10 131 l5
56 -1065 -1 c-732 0 -1065 -3 -1066 -11 -1 -5 -3 -19 -4 -30 -2 -11 -6 -58
-10 -105 -3 -47 -8 -101 -10 -120 -2 -19 -6 -73 -10 -120 -3 -47 -8 -92 -11
-102 -3 -9 0 -20 7 -23 6 -4 193 -7 415 -7 l404 0 0 -479 0 -479 -751 2 -752
3 -139 370 c-76 204 -145 388 -153 410 -8 22 -30 83 -50 135 -20 52 -42 111
-49 130 -92 249 -148 395 -155 408 -8 15 -35 17 -226 18 -210 0 -217 0 -226
-20 -5 -12 -41 -111 -80 -221 -39 -110 -77 -214 -85 -232 -8 -17 -14 -36 -14
-42 0 -6 -4 -19 -9 -29 -5 -9 -26 -64 -46 -122 -20 -58 -40 -114 -45 -125 -5
-11 -59 -159 -120 -330 -61 -170 -115 -320 -120 -332 l-10 -23 -395 0 -395 0
0 738 0 738 -270 0 c-149 0 -273 -2 -275 -5z m2098 -903 c56 -151 197 -552
197 -559 0 -5 -96 -9 -214 -9 l-214 0 78 228 c43 125 89 260 104 301 14 41 26
76 26 78 0 13 10 -4 23 -39z"/>
</g>
</svg>
