<?xml version="1.0" standalone="no"?>
<!DOCTYPE svg PUBLIC "-//W3C//DTD SVG 20010904//EN"
 "http://www.w3.org/TR/2001/REC-SVG-20010904/DTD/svg10.dtd">
<svg version="1.0" xmlns="http://www.w3.org/2000/svg"
 width="512.000000pt" height="512.000000pt" viewBox="0 0 512.000000 512.000000"
 preserveAspectRatio="xMidYMid meet">

<g transform="translate(0.000000,512.000000) scale(0.100000,-0.100000)"
fill="#000000" stroke="none">
<path d="M1960 5104 c0 -8 5 -14 10 -14 6 0 10 6 10 13 0 9 3 8 9 -2 6 -9 11
-10 15 -2 4 6 12 11 18 11 6 0 5 -7 -3 -17 -10 -11 -10 -14 -1 -9 7 4 12 1 12
-9 0 -9 -4 -14 -9 -10 -5 3 -12 1 -16 -5 -3 -5 -1 -10 6 -10 10 0 10 -3 1 -12
-10 -10 -4 -36 14 -56 5 -7 74 22 74 30 0 4 5 8 11 8 8 0 156 59 224 90 13 6
-52 9 -177 9 -165 0 -198 -3 -198 -15z"/>
<path d="M2785 5111 c11 -5 27 -7 35 -6 8 1 18 -2 21 -7 6 -9 41 -19 72 -21 9
-1 17 -5 17 -10 0 -5 7 -7 15 -3 10 3 15 -1 15 -12 0 -13 2 -14 9 -4 5 9 11
-13 15 -58 4 -40 5 -74 2 -78 -3 -3 -6 6 -6 21 0 14 -5 29 -10 32 -7 5 -9 -11
-6 -47 l6 -53 -15 45 -14 45 4 -55 5 -55 -14 40 -15 40 5 -55 c3 -53 3 -54 -6
-16 -15 57 -21 57 -15 0 4 -35 3 -43 -4 -29 -9 18 -10 17 -10 -8 -1 -19 -5
-26 -13 -21 -8 5 -9 -2 -5 -27 l7 -34 -16 25 c-15 25 -15 25 -10 -12 5 -43 0
-49 -15 -15 -7 17 -8 14 -4 -18 5 -39 5 -40 -10 -15 -13 22 -14 22 -13 5 1
-11 0 -38 -2 -60 l-3 -40 -7 35 -7 35 -2 -38 c0 -23 -5 -36 -11 -32 -6 4 -13
-8 -17 -25 -4 -23 -8 -28 -15 -18 -5 8 -6 3 -2 -14 4 -18 2 -28 -5 -28 -6 0
-11 -12 -11 -27 0 -22 -2 -25 -10 -13 -7 11 -10 7 -10 -18 0 -19 -4 -31 -10
-27 -6 3 -7 -1 -3 -10 5 -14 8 -14 15 -3 7 9 8 7 5 -9 -3 -13 -1 -38 3 -58 9
-40 18 -39 -100 -11 -14 3 -36 8 -50 10 -14 3 -36 8 -50 11 -93 21 -132 21
-215 -1 -33 -9 -64 -17 -70 -18 -5 -1 -20 -7 -31 -14 -12 -6 -24 -8 -28 -5 -3
3 -6 1 -6 -5 0 -7 -7 -12 -15 -12 -9 0 -25 -9 -37 -20 -12 -10 -24 -17 -28
-15 -17 11 -42 -68 -38 -117 3 -29 2 -44 -3 -36 -6 9 -9 9 -9 1 0 -6 4 -14 10
-18 5 -3 6 -13 3 -22 -4 -11 -3 -14 5 -9 8 5 10 2 6 -8 -3 -9 -1 -16 5 -16 18
0 30 -42 31 -106 1 -77 -1 -94 -12 -88 -5 4 -7 13 -4 21 3 8 1 11 -4 8 -6 -3
-11 -21 -11 -38 -1 -18 -3 -24 -6 -15 -4 16 -6 16 -19 4 -8 -8 -14 -20 -14
-26 0 -6 -4 -8 -10 -5 -6 4 -8 -7 -5 -27 4 -26 3 -29 -4 -13 -9 20 -10 20 -10
-1 -1 -12 6 -24 14 -28 17 -6 21 -46 5 -46 -5 0 -10 -7 -10 -16 0 -8 -4 -12
-10 -9 -6 4 -10 -7 -10 -27 0 -23 -7 -37 -22 -48 -13 -8 -26 -13 -30 -12 -5 1
-8 -4 -8 -11 0 -8 -4 -7 -10 3 -8 13 -10 13 -10 -2 0 -18 -33 -42 -44 -31 -3
3 -6 1 -6 -6 0 -7 -4 -10 -8 -7 -4 2 -7 -7 -6 -21 1 -30 28 -54 96 -89 27 -13
48 -28 48 -33 0 -17 -32 -136 -41 -153 -12 -22 5 -32 21 -13 10 12 16 13 27 3
11 -9 22 -9 49 1 44 16 54 8 23 -18 -14 -11 -35 -18 -51 -15 -34 4 -36 1 -40
-69 -1 -31 -6 -57 -10 -57 -4 0 -1 -12 7 -27 7 -16 18 -39 24 -53 l10 -25 0
25 c1 42 28 71 64 70 18 -1 57 1 87 3 35 3 58 1 62 -6 9 -14 10 -33 2 -24 -10
10 -32 -17 -26 -32 3 -9 1 -12 -6 -7 -6 3 -13 2 -17 -4 -4 -6 -10 -8 -15 -5
-5 3 -16 -2 -25 -11 -9 -9 -19 -14 -22 -11 -3 4 -13 2 -23 -3 -23 -12 -19 -64
7 -94 12 -13 19 -27 16 -30 -3 -3 -1 -12 5 -19 7 -8 9 -17 5 -20 -3 -4 -1 -7
5 -7 6 0 9 -8 6 -17 -5 -17 -5 -17 6 0 12 18 37 22 59 8 12 -8 12 -14 1 -42
-14 -32 -20 -99 -10 -99 3 0 5 -16 6 -35 0 -19 8 -43 17 -53 14 -15 14 -19 2
-19 -8 0 -11 5 -8 10 3 6 1 7 -5 3 -12 -7 -5 -35 9 -37 14 -2 22 -5 54 -18 17
-7 42 -14 58 -16 15 -1 30 -5 34 -9 4 -3 27 -4 52 -1 159 16 184 16 178 0 -4
-8 -1 -15 5 -15 9 0 9 -3 0 -12 -9 -9 -7 -14 6 -25 16 -12 16 -13 -2 -6 -15 5
-17 3 -10 -8 4 -8 8 -24 9 -36 0 -12 4 -25 9 -30 5 -5 6 -3 2 4 -5 9 -2 11 9
7 11 -5 13 -10 5 -19 -8 -9 -4 -17 15 -29 14 -9 25 -22 24 -29 -4 -31 1 -38
15 -25 8 7 11 18 8 23 -3 6 2 4 11 -4 9 -7 15 -17 12 -21 -3 -4 2 -13 10 -20
16 -13 10 -35 -6 -24 -5 3 -7 9 -4 14 3 5 1 11 -5 15 -6 4 -7 11 -4 17 4 7 2
8 -5 4 -8 -5 -9 -12 -3 -19 5 -7 8 -20 7 -30 -2 -9 1 -15 5 -12 5 3 12 1 15
-5 5 -8 12 -7 23 1 10 6 5 0 -10 -14 -28 -26 -28 -40 0 -29 15 5 16 4 2 -14
-14 -19 -14 -19 7 0 13 10 20 23 16 29 -3 5 -2 8 3 4 5 -3 61 37 124 89 256
210 402 325 530 417 74 53 142 103 150 111 8 8 33 28 54 45 22 18 46 41 53 51
14 19 13 19 -21 -1 l-36 -21 0 22 c0 11 -4 19 -9 16 -5 -3 -11 3 -14 14 -3 12
-1 18 5 14 6 -4 6 2 -1 14 -6 11 -8 28 -4 38 4 12 3 15 -5 10 -9 -5 -9 0 -2
20 10 25 9 26 -6 13 -16 -13 -17 -11 -9 26 4 22 9 68 11 103 2 35 6 68 10 74
5 7 3 8 -5 4 -9 -6 -11 1 -7 26 3 18 8 55 10 81 3 27 11 56 18 65 7 9 8 13 2
9 -7 -4 -15 0 -18 9 -9 24 -7 31 4 14 6 -9 10 -10 10 -3 0 6 -5 15 -11 18 -15
10 16 42 81 83 71 45 104 76 141 133 38 59 79 181 79 234 0 52 -25 139 -45
155 -8 7 -15 23 -15 36 0 15 -6 24 -15 24 -8 0 -15 4 -15 10 0 5 7 7 15 3 27
-10 73 -88 91 -150 15 -56 15 -66 0 -139 -21 -105 -64 -189 -126 -248 -70 -66
-82 -88 -86 -154 -2 -31 -6 -70 -10 -87 -3 -16 -7 -61 -10 -100 l-5 -70 21 24
c23 27 28 15 5 -15 -8 -10 -14 -35 -14 -54 0 -30 5 -23 28 45 16 44 36 96 45
115 l17 35 -20 -25 c-11 -14 -21 -19 -21 -13 0 22 81 228 94 238 20 15 66 93
81 135 8 21 22 51 31 65 21 33 85 187 80 192 -2 3 9 40 25 84 16 43 28 96 27
117 0 22 2 44 5 50 4 5 3 12 -2 14 -5 1 -7 15 -4 30 3 15 10 25 15 22 6 -4 9
6 8 22 -3 46 0 51 13 21 12 -28 12 -27 12 16 0 25 -3 40 -7 34 -8 -12 -3 77 7
135 14 82 13 185 -1 243 -18 71 -35 96 -23 33 11 -58 11 -68 -1 -68 -5 0 -10
13 -10 29 0 17 -4 32 -9 35 -5 3 -8 17 -8 32 0 14 -5 29 -11 33 -17 10 -92
143 -86 153 3 4 0 8 -7 8 -7 0 -10 3 -6 6 9 9 -64 91 -131 147 l-34 27 -511
-1 c-282 0 -503 -4 -492 -8z m218 -121 c4 -36 3 -46 -3 -30 -8 25 -13 97 -6
89 2 -2 6 -29 9 -59z m-580 -751 c-6 -6 -9 -19 -6 -28 4 -13 3 -14 -5 -1 -10
14 1 40 16 40 3 0 1 -5 -5 -11z m60 -56 c-13 -2 -33 -2 -45 0 -13 2 -3 4 22 4
25 0 35 -2 23 -4z m0 -21 c4 -1 12 -2 19 -2 6 0 8 -3 4 -7 -4 -4 -37 -8 -74
-8 -37 -1 -78 -7 -91 -14 -15 -8 -21 -9 -17 -2 4 6 23 19 43 30 33 16 57 17
116 3z m54 12 c-3 -3 -12 -4 -19 -1 -8 3 -5 6 6 6 11 1 17 -2 13 -5z m1228
-74 c3 -5 1 -10 -5 -10 -9 0 -87 -46 -100 -60 -3 -3 -15 -6 -27 -6 -19 -1 -20
1 -10 24 18 39 125 79 142 52z m-1305 -4 c0 -3 -4 -8 -10 -11 -5 -3 -10 -1
-10 4 0 6 5 11 10 11 6 0 10 -2 10 -4z m-40 -91 c0 -5 -5 -3 -10 5 -5 8 -10
20 -10 25 0 6 5 3 10 -5 5 -8 10 -19 10 -25z m500 21 c0 -6 5 -4 10 4 8 12 10
10 11 -10 0 -22 1 -23 8 -5 7 16 9 14 14 -14 10 -48 9 -91 -2 -91 -5 0 -12 8
-15 18 -3 9 -3 -1 0 -23 3 -29 2 -36 -5 -25 -9 12 -11 9 -12 -15 0 -26 -2 -27
-9 -10 -8 19 -9 19 -9 -3 -1 -13 -5 -20 -11 -17 -6 3 -10 -4 -11 -17 0 -14 -3
-17 -6 -9 -4 10 -10 5 -20 -15 -7 -16 -11 -21 -8 -11 3 10 1 15 -5 12 -6 -3
-10 -13 -10 -21 0 -8 -4 -14 -9 -14 -5 0 -13 -10 -16 -21 -6 -17 -9 -19 -16
-8 -6 10 -9 7 -10 -11 0 -23 -1 -23 -9 -5 -6 14 -9 15 -9 5 -1 -16 -42 -56
-51 -51 -3 1 -8 -8 -12 -21 l-6 -23 -2 25 c-2 24 -3 23 -10 -5 -5 -21 -8 -24
-10 -10 -1 13 -6 6 -15 -20 -7 -22 -13 -33 -14 -25 -2 27 -21 -11 -22 -45 l-1
-30 -8 30 c-7 26 -8 22 -10 -25 l-3 -55 -7 40 c-6 33 -8 26 -10 -45 l-3 -85
-7 65 -6 65 -4 -68 c-3 -37 -2 -67 3 -67 4 0 6 -17 6 -37 l-2 -38 -7 35 c-7
35 -7 35 -15 -17 -4 -29 -11 -53 -16 -53 -5 0 -9 -9 -9 -20 0 -16 -4 -18 -24
-10 -13 5 -27 6 -30 3 -3 -4 -6 2 -7 13 0 10 -3 14 -5 7 -4 -8 -13 -9 -30 -3
-13 5 -24 7 -24 4 0 -4 -7 -1 -15 6 -8 7 -15 9 -15 5 0 -4 -11 0 -25 9 -14 9
-25 14 -25 11 0 -4 -13 2 -30 12 -16 9 -30 26 -30 36 0 11 -5 15 -11 11 -15
-9 -3 27 27 86 13 25 22 56 20 70 -7 57 -20 107 -37 148 -10 24 -15 41 -11 38
5 -3 4 18 -2 46 -9 43 -12 47 -17 27 l-7 -24 -2 25 c-1 20 -3 21 -8 8 -4 -10
-8 17 -9 60 -1 50 1 70 7 57 8 -19 9 -19 9 -1 1 11 4 16 8 13 3 -4 12 1 20 11
10 11 12 12 8 2 -4 -10 -2 -10 8 2 11 14 16 15 26 5 10 -9 15 -8 25 5 10 13
41 18 54 8 3 -3 11 -5 62 -15 68 -12 160 -13 160 -2 0 6 3 8 6 4 7 -7 147 61
152 74 2 5 8 7 13 3 5 -3 9 0 9 6 0 6 4 9 9 5 5 -3 12 -1 16 5 4 6 11 8 16 5
5 -4 9 -2 9 3 0 5 11 8 25 7 14 -2 27 0 30 4 7 12 35 9 35 -3z m-520 -36 c0
-5 -8 -10 -17 -10 -15 0 -16 2 -3 10 19 12 20 12 20 0z m587 -22 c-3 -8 -6 -5
-6 6 -1 11 2 17 5 13 3 -3 4 -12 1 -19z m-855 -88 l-8 -45 -5 42 c-2 23 -1 39
3 37 5 -3 9 5 9 18 1 13 3 16 5 8 2 -8 0 -35 -4 -60z m39 35 c5 4 9 0 9 -7 0
-9 3 -9 10 2 7 11 10 2 10 -32 0 -25 3 -55 6 -65 4 -13 3 -15 -4 -4 -8 11 -10
11 -15 0 -3 -8 -6 0 -8 16 l-2 30 -7 -35 c-7 -32 -8 -29 -10 25 l-3 60 -7 -50
c-6 -44 -7 -46 -8 -14 -2 44 10 112 16 86 2 -9 8 -15 13 -12z m1404 -104 c3
-5 1 -12 -5 -16 -5 -3 -10 -17 -10 -31 0 -13 -4 -24 -10 -24 -5 0 -10 18 -10
40 0 28 4 40 14 40 8 0 17 -4 21 -9z m-1328 -103 c-3 -8 -6 -5 -6 6 -1 11 2
17 5 13 3 -3 4 -12 1 -19z m1538 -27 c-16 -32 -35 -49 -35 -32 0 6 4 11 8 11
5 0 14 11 20 25 6 14 14 25 17 25 3 0 -1 -13 -10 -29z m-136 -36 c-8 -9 -29
-18 -45 -20 -29 -5 -29 -5 6 15 42 23 60 26 39 5z m31 -44 c0 -6 -4 -13 -10
-16 -5 -3 -10 1 -10 9 0 9 5 16 10 16 6 0 10 -4 10 -9z m-131 -171 c19 0 19
-4 -13 -93 -18 -50 -41 -108 -51 -127 -18 -36 -72 -89 -90 -90 -16 0 -36 38
-24 46 6 3 8 12 5 20 -3 8 -1 14 5 14 6 0 8 7 5 16 -3 8 -2 13 3 10 5 -3 12 1
15 10 3 8 2 12 -4 9 -6 -3 -10 -2 -10 4 0 5 5 13 10 16 8 5 7 12 -2 23 -11 13
-11 14 1 8 10 -7 12 -3 6 14 -4 14 -3 20 3 16 5 -3 12 3 15 14 3 11 2 18 -2
15 -4 -2 -8 2 -8 9 0 8 7 12 15 8 10 -3 13 -1 8 6 -4 7 -2 12 4 12 6 0 10 8 8
18 -2 9 3 25 11 34 13 15 17 15 42 2 15 -8 37 -14 48 -14z m-1216 -653 c22 14
47 13 47 -1 0 -26 -12 -46 -23 -39 -6 4 -8 0 -4 -10 8 -21 -2 -22 -31 -2 -20
15 -21 15 -16 -2 5 -15 4 -16 -5 -3 -6 8 -11 26 -11 40 0 20 2 22 10 10 8 -12
10 -12 11 5 0 11 3 14 6 7 2 -6 10 -9 16 -5z m64 -19 c-3 -7 -5 -2 -5 12 0 14
2 19 5 13 2 -7 2 -19 0 -25z m-137 -13 c0 -5 -5 -3 -10 5 -5 8 -10 10 -10 4 0
-7 -7 -15 -16 -18 -15 -6 -11 7 11 30 10 12 25 0 25 -21z m20 13 c0 -19 -2
-20 -10 -8 -13 19 -13 30 0 30 6 0 10 -10 10 -22z"/>
<path d="M2231 3804 c0 -11 3 -14 6 -6 3 7 2 16 -1 19 -3 4 -6 -2 -5 -13z"/>
<path d="M1990 4990 c6 -11 13 -20 16 -20 2 0 0 9 -6 20 -6 11 -13 20 -16 20
-2 0 0 -9 6 -20z"/>
<path d="M4121 4395 c-8 -24 -9 -40 -2 -52 11 -18 12 -16 16 27 1 14 6 33 10
43 4 9 3 17 -2 17 -5 0 -15 -16 -22 -35z"/>
<path d="M4147 4331 c-4 -17 -3 -21 5 -13 5 5 8 16 6 23 -3 8 -7 3 -11 -10z"/>
<path d="M1805 4209 c-4 -5 -14 -9 -24 -9 -18 0 -61 -66 -61 -93 0 -12 8 -15
30 -12 17 2 30 -1 30 -7 0 -5 7 -7 16 -4 9 3 12 2 8 -5 -4 -7 2 -9 16 -7 40 5
32 -16 -16 -45 -52 -31 -55 -46 -5 -21 45 23 48 12 6 -20 -28 -22 -34 -31 -25
-41 7 -8 9 -19 5 -25 -3 -5 -2 -10 4 -10 5 0 14 7 19 17 9 15 11 14 21 -5 6
-11 18 -28 27 -36 8 -9 11 -16 5 -16 -6 0 -11 -5 -11 -11 0 -6 7 -8 15 -5 10
4 19 -2 23 -15 8 -20 9 -20 20 5 10 22 9 26 -6 27 -13 0 -11 2 5 9 29 12 63
67 63 102 0 19 -15 42 -50 78 -27 28 -46 48 -41 45 18 -10 22 34 7 63 -16 31
-71 59 -81 41z"/>
<path d="M4036 3935 c-3 -9 -6 -22 -5 -28 0 -7 5 -1 10 12 5 13 8 26 5 28 -2
2 -6 -3 -10 -12z"/>
<path d="M1940 3091 c0 -6 4 -13 10 -16 6 -3 7 1 4 9 -7 18 -14 21 -14 7z"/>
<path d="M3719 2675 c-1 -5 -2 -17 -3 -25 0 -8 -7 -14 -13 -13 -10 2 -10 -3
-1 -22 9 -21 14 -23 27 -13 13 10 14 10 4 -2 -17 -19 -43 -22 -36 -4 8 22 -5
16 -18 -7 -8 -15 -8 -19 0 -15 15 10 14 -7 -1 -24 -7 -8 -2 -6 12 5 l24 20
-16 -25 c-9 -14 -22 -23 -30 -22 -7 2 -10 1 -6 -3 4 -4 -7 -28 -23 -55 -16
-26 -29 -52 -29 -57 0 -6 -12 -23 -27 -40 -16 -16 -32 -37 -38 -46 -20 -32
-108 -163 -136 -202 -51 -71 -234 -347 -281 -425 -95 -157 -180 -338 -533
-1135 -107 -242 -225 -536 -225 -560 0 -3 619 -5 1375 -5 l1375 0 0 831 c0
735 -2 830 -15 825 -12 -4 -13 -2 -5 13 7 14 6 20 -5 25 -8 3 -17 1 -20 -4 -4
-6 -12 -10 -18 -10 -7 0 -1 9 13 20 14 11 23 20 20 20 -41 8 -60 7 -60 -3 0
-8 -4 -7 -9 2 -5 8 -7 21 -4 30 5 13 3 14 -8 4 -7 -7 -20 -13 -28 -13 -11 0
-11 3 3 13 17 13 18 14 2 20 -9 4 -15 3 -12 -2 7 -10 -23 -20 -41 -14 -7 3
-13 9 -13 15 0 5 9 6 20 3 14 -5 20 -2 20 9 0 20 -19 20 -40 1 -17 -16 -55
-10 -44 6 3 5 -4 9 -16 9 -12 0 -18 4 -15 10 6 10 23 8 63 -7 6 -3 12 0 12 6
0 6 -9 11 -19 11 -11 0 -21 6 -23 12 -3 9 -11 8 -31 -5 -18 -12 -28 -14 -33
-5 -5 7 -3 8 6 3 8 -5 11 -4 6 3 -3 6 -14 10 -24 10 -18 -1 -92 40 -92 51 0 4
6 13 13 21 6 8 2 6 -10 -4 -13 -11 -23 -15 -23 -10 0 5 -8 14 -19 19 -10 6
-43 27 -74 48 -31 22 -61 36 -67 32 -6 -3 -9 -1 -8 5 2 7 -10 19 -27 29 -93
52 -154 91 -179 114 -16 15 -36 27 -45 27 -14 0 -14 2 -1 10 12 8 10 10 -8 10
-13 0 -30 6 -38 14 -12 13 -12 16 3 25 10 6 12 11 5 11 -6 0 -11 3 -11 8 4 21
-2 32 -13 26 -8 -5 -9 -2 -5 9 3 9 2 19 -3 22 -6 4 -10 -2 -10 -11 0 -16 -1
-16 -15 2 -8 10 -15 38 -15 61 0 23 -5 45 -12 49 -8 5 -10 -6 -5 -42 l5 -49
-14 45 c-8 25 -16 56 -18 70 -2 14 -4 29 -5 34 0 4 -42 48 -93 96 -90 87 -133
111 -153 86 -12 -15 -75 -38 -75 -28 0 4 -5 0 -10 -8 -8 -13 -10 -12 -10 4 0
12 -5 16 -15 12 -8 -3 -14 -2 -13 2 0 4 -4 18 -10 32 -6 14 -12 21 -13 15z
m318 -177 c-3 -8 -6 -5 -6 6 -1 11 2 17 5 13 3 -3 4 -12 1 -19z m33 -20 c0
-25 -3 -29 -10 -18 -13 20 -13 50 0 50 6 0 10 -15 10 -32z"/>
<path d="M2531 2145 c0 -27 5 -73 10 -100 11 -50 12 -51 45 -47 39 5 39 5 17
39 -10 15 -30 56 -45 92 l-26 66 -1 -50z"/>
<path d="M2606 1965 c-10 -7 -28 -11 -42 -9 -17 3 -24 0 -24 -11 0 -9 -4 -13
-10 -10 -5 3 -10 1 -10 -5 0 -6 -4 -9 -8 -6 -5 3 -15 -7 -23 -22 -8 -15 -19
-31 -26 -37 -39 -35 -113 -244 -113 -322 0 -18 -4 -33 -10 -33 -5 0 -10 6 -10
13 0 15 26 178 36 227 8 44 2 38 -68 -70 -70 -107 -100 -167 -103 -203 -1 -15
-11 -38 -23 -50 -11 -12 -23 -34 -25 -48 -7 -34 -54 -126 -67 -131 -6 -2 -12
-10 -13 -18 -2 -8 -20 -50 -41 -92 -21 -42 -36 -82 -34 -90 3 -8 11 -2 21 17
9 17 16 25 17 20 0 -17 -31 -56 -40 -50 -10 6 -20 -19 -20 -53 0 -15 -18 -56
-40 -91 -21 -36 -37 -68 -34 -73 7 -11 -13 -97 -37 -163 -10 -27 -18 -57 -17
-65 3 -41 -4 -71 -28 -106 -14 -21 -20 -33 -13 -26 7 6 16 12 20 12 10 0 -17
-109 -31 -126 -9 -10 -9 -14 -1 -14 8 0 7 -9 -4 -30 -18 -35 -21 -75 -4 -50 8
12 9 11 5 -5 -3 -11 -9 -38 -15 -60 -6 -22 -14 -65 -19 -95 -5 -30 -13 -63
-17 -72 -7 -17 11 -18 298 -18 l305 0 21 83 c12 45 62 206 111 357 49 151 101
318 115 370 14 52 37 123 50 158 14 34 25 72 25 85 0 18 2 19 10 7 14 -21 11
-1 -6 40 -13 33 -14 34 -10 6 4 -32 -2 -56 -13 -56 -4 0 -6 12 -4 27 3 16 -2
36 -9 46 -20 26 -4 179 23 232 38 74 84 105 99 67 3 -8 20 7 44 38 25 32 42
47 46 40 5 -8 9 -6 14 6 6 15 9 15 33 -7 l26 -24 -17 32 c-9 18 -31 57 -48 85
-17 29 -62 112 -101 183 -38 72 -81 146 -96 166 -23 33 -29 35 -45 24z m81
-417 c-18 -43 -77 -95 -88 -77 -4 7 -4 20 1 29 12 22 91 93 96 87 3 -3 -1 -20
-9 -39z m-336 -95 c-1 -21 -1 -51 0 -68 1 -63 -20 -212 -36 -258 -24 -69 -123
-277 -141 -295 -9 -8 -13 -23 -11 -34 3 -10 2 -16 -3 -13 -6 4 -34 -64 -45
-110 -1 -5 -7 -23 -14 -39 -6 -16 -9 -36 -7 -43 3 -8 2 -12 -3 -9 -4 3 -14
-14 -21 -37 -8 -23 -22 -60 -33 -82 -11 -22 -18 -40 -16 -41 2 0 -4 -16 -13
-35 -9 -19 -27 -67 -39 -106 -13 -40 -26 -73 -29 -73 -11 0 9 119 40 237 38
145 97 295 161 408 66 117 125 233 133 265 7 24 6 24 -8 6 -15 -18 -21 -15
-17 8 1 5 -14 -3 -35 -19 l-36 -28 7 24 c4 13 41 86 81 162 62 115 73 141 64
158 -12 21 -5 59 11 59 5 0 10 -17 10 -37z"/>
<path d="M4743 1885 c0 -8 4 -12 8 -9 5 3 18 0 29 -6 11 -6 20 -8 20 -6 0 3
-13 12 -28 20 -24 13 -29 13 -29 1z"/>
<path d="M2109 1338 c-12 -18 -29 -39 -37 -45 -13 -11 -14 -13 -1 -13 8 0 20
10 28 23 8 12 21 32 29 45 23 35 6 26 -19 -10z"/>
<path d="M2656 1208 c-9 -12 -14 -24 -11 -26 7 -7 55 27 55 38 0 18 -29 10
-44 -12z"/>
<path d="M2041 1208 c-46 -56 -61 -77 -61 -87 0 -6 -7 -7 -17 -4 -13 5 -15 2
-10 -11 4 -10 3 -15 -3 -11 -5 3 -14 -5 -21 -17 -11 -22 -11 -22 6 -8 17 14
17 13 10 -10 -8 -27 12 -1 79 105 33 51 41 73 17 43z"/>
<path d="M22 1140 c0 -14 2 -19 5 -12 2 6 2 18 0 25 -3 6 -5 1 -5 -13z"/>
<path d="M2 1100 c0 -14 2 -19 5 -12 2 6 2 18 0 25 -3 6 -5 1 -5 -13z"/>
<path d="M11 1024 c0 -11 3 -14 6 -6 3 7 2 16 -1 19 -3 4 -6 -2 -5 -13z"/>
<path d="M1924 1019 c-18 -23 -48 -119 -37 -119 8 0 55 110 51 121 -2 7 -7 7
-14 -2z"/>
<path d="M23 965 c0 -22 2 -30 4 -17 2 12 2 30 0 40 -3 9 -5 -1 -4 -23z"/>
<path d="M1656 953 c-6 -14 -5 -15 5 -6 7 7 10 15 7 18 -3 3 -9 -2 -12 -12z"/>
<path d="M1623 931 c-6 -17 -8 -29 -3 -26 5 3 10 2 13 -2 2 -5 2 -1 0 7 -3 12
-1 12 8 3 6 -6 9 -20 5 -30 -6 -15 -9 -15 -16 -3 -10 17 -8 19 -44 -48 -15
-29 -22 -51 -16 -50 7 2 15 -4 18 -12 2 -8 1 -12 -3 -8 -9 9 -34 -20 -35 -39
0 -7 5 -13 10 -13 6 0 10 6 10 13 0 7 9 18 20 25 20 12 21 12 5 -12 -21 -32
-35 -132 -21 -146 8 -8 7 -11 -4 -8 -10 2 -16 -6 -18 -24 -2 -16 1 -28 7 -28
6 0 11 -10 11 -22 0 -19 -2 -20 -10 -8 -6 9 -10 10 -10 3 0 -6 5 -15 10 -18 6
-3 9 -21 9 -38 l-1 -32 -9 30 c-7 26 -8 24 -5 -12 2 -24 1 -43 -4 -43 -4 0 -8
-6 -7 -12 1 -40 -4 -59 -15 -52 -8 5 -9 2 -4 -12 10 -24 10 -169 0 -185 -4 -8
-12 -1 -20 17 l-14 29 6 -30 c4 -16 6 -38 6 -47 0 -10 3 -18 8 -18 6 0 6 -10
0 -24 -5 -13 -6 -27 -3 -30 4 -3 1 -6 -6 -6 -7 0 -9 -4 -6 -10 3 -6 48 -10
101 -10 l94 0 0 28 c0 15 12 101 26 192 14 91 27 179 29 195 1 17 10 68 20
115 22 109 31 205 18 197 -5 -3 -8 -21 -7 -39 l3 -33 -8 30 c-4 17 -6 44 -4
60 4 26 3 27 -7 12 -6 -10 -9 -32 -6 -50 6 -29 5 -30 -4 -8 -6 14 -8 37 -5 53
9 37 -1 36 -21 -3 -11 -23 -19 -28 -27 -20 -8 8 -5 24 10 61 23 55 15 73 -20
43 -17 -14 -16 -10 6 19 21 29 25 41 18 60 -6 13 -10 16 -11 8 0 -13 -2 -13
-11 0 -9 12 -10 12 -5 -3 3 -10 -1 -25 -9 -33 -12 -13 -14 -11 -10 15 2 22 0
28 -10 25 -8 -4 -15 3 -17 16 -3 20 -4 19 -15 -9z m79 -53 c-7 -7 -12 -8 -12
-2 0 14 12 26 19 19 2 -3 -1 -11 -7 -17z m-109 -73 c-3 -9 -8 -14 -10 -11 -3
3 -2 9 2 15 9 16 15 13 8 -4z m154 -172 c-3 -10 -5 -4 -5 12 0 17 2 24 5 18 2
-7 2 -21 0 -30z m-180 -85 c-3 -8 -6 -5 -6 6 -1 11 2 17 5 13 3 -3 4 -12 1
-19z m16 -173 c-3 -9 -8 -14 -10 -11 -3 3 -2 9 2 15 9 16 15 13 8 -4z m-28
-105 c3 -18 2 -30 -2 -27 -3 4 -7 21 -9 38 -2 18 -1 30 2 27 3 -3 7 -20 9 -38z"/>
<path d="M2 935 c0 -11 3 -29 8 -40 11 -25 11 1 0 35 -6 20 -8 21 -8 5z"/>
<path d="M31 904 c0 -11 3 -14 6 -6 3 7 2 16 -1 19 -3 4 -6 -2 -5 -13z"/>
<path d="M1725 870 c-3 -5 -1 -10 4 -10 6 0 11 5 11 10 0 6 -2 10 -4 10 -3 0
-8 -4 -11 -10z"/>
<path d="M5 845 c2 -16 7 -57 10 -90 11 -102 66 -478 76 -515 5 -19 8 -48 8
-65 -1 -33 -2 -32 -25 90 -25 138 -62 384 -66 450 -2 22 -4 -130 -6 -337 l-2
-378 159 0 c118 0 161 3 164 13 4 10 6 10 6 0 1 -8 16 -13 41 -13 39 0 40 1
40 36 0 19 -4 33 -8 30 -4 -2 -16 52 -27 122 -10 69 -20 121 -22 115 -3 -7 3
-63 11 -125 9 -62 15 -126 15 -143 -2 -30 -4 -19 -24 123 -4 28 -12 52 -18 52
-5 0 -6 15 -2 36 4 24 3 34 -4 29 -14 -8 -14 -62 -1 -70 5 -3 9 -18 8 -33 -1
-15 2 -52 5 -82 3 -30 -7 8 -23 85 -16 77 -27 149 -24 160 4 15 3 16 -4 6 -5
-7 -12 -9 -14 -5 -3 5 -3 2 0 -6 4 -16 42 -259 42 -274 0 -32 -12 16 -29 119
-19 107 -38 190 -40 174 -1 -3 8 -66 19 -139 12 -73 19 -135 16 -137 -2 -2 -7
8 -10 24 -47 246 -61 312 -64 308 -2 -2 5 -61 16 -132 30 -190 33 -218 28
-212 -6 5 -41 198 -56 299 l-7 55 -2 -49 c0 -27 6 -87 15 -133 8 -46 13 -94
11 -106 -3 -17 -5 -15 -6 8 -1 17 -12 77 -25 135 -13 58 -27 124 -31 148 -4
24 -9 41 -11 39 -2 -2 7 -77 21 -167 14 -90 24 -170 23 -179 -2 -9 -19 79 -38
194 -19 115 -36 202 -38 193 -2 -9 4 -63 13 -120 31 -199 25 -211 -10 -18 -19
107 -39 224 -45 260 l-9 65 5 -78 c3 -42 13 -130 23 -195 27 -170 34 -218 28
-212 -3 3 -10 32 -16 65 -6 33 -19 112 -30 175 -10 63 -27 178 -36 255 -9 77
-21 149 -26 160 -7 16 -8 14 -4 -10z m12 -367 c-2 -13 -4 -3 -4 22 0 25 2 35
4 23 2 -13 2 -33 0 -45z m10 -60 c-3 -7 -5 -2 -5 12 0 14 2 19 5 13 2 -7 2
-19 0 -25z m10 -70 c-2 -13 -4 -5 -4 17 -1 22 1 32 4 23 2 -10 2 -28 0 -40z
m-20 -50 c-3 -8 -6 -5 -6 6 -1 11 2 17 5 13 3 -3 4 -12 1 -19z m42 -42 c5 -22
6 -35 2 -30 -9 9 -27 83 -18 74 3 -3 10 -23 16 -44z m-32 2 c-3 -8 -6 -5 -6 6
-1 11 2 17 5 13 3 -3 4 -12 1 -19z m10 -70 c-3 -8 -6 -5 -6 6 -1 11 2 17 5 13
3 -3 4 -12 1 -19z m120 -60 c-3 -8 -6 -5 -6 6 -1 11 2 17 5 13 3 -3 4 -12 1
-19z m-20 -40 c-3 -8 -6 -5 -6 6 -1 11 2 17 5 13 3 -3 4 -12 1 -19z m160 -65
c-3 -10 -5 -5 -5 12 0 17 2 24 5 18 2 -7 2 -21 0 -30z m100 -5 c-3 -7 -5 -2
-5 12 0 14 2 19 5 13 2 -7 2 -19 0 -25z"/>
<path d="M31 844 c0 -11 3 -14 6 -6 3 7 2 16 -1 19 -3 4 -6 -2 -5 -13z"/>
<path d="M61 834 c0 -11 3 -14 6 -6 3 7 2 16 -1 19 -3 4 -6 -2 -5 -13z"/>
<path d="M1736 823 c-6 -14 -5 -15 5 -6 7 7 10 15 7 18 -3 3 -9 -2 -12 -12z"/>
<path d="M1866 795 c-9 -26 -7 -32 5 -12 6 10 9 21 6 23 -2 3 -7 -2 -11 -11z"/>
<path d="M42 770 c0 -14 4 -38 8 -55 7 -27 8 -27 8 -5 0 14 -4 39 -8 55 -7 27
-8 27 -8 5z"/>
<path d="M1711 773 c-1 -6 -4 -20 -7 -30 -5 -17 -5 -17 6 0 6 10 9 23 6 30 -3
9 -5 9 -5 0z"/>
<path d="M81 714 c0 -11 3 -14 6 -6 3 7 2 16 -1 19 -3 4 -6 -2 -5 -13z"/>
<path d="M141 684 c0 -11 3 -14 6 -6 3 7 2 16 -1 19 -3 4 -6 -2 -5 -13z"/>
<path d="M1530 653 c0 -4 5 -15 10 -23 8 -13 10 -13 10 2 0 9 -4 20 -10 23 -5
3 -10 3 -10 -2z"/>
<path d="M1811 644 c0 -11 3 -14 6 -6 3 7 2 16 -1 19 -3 4 -6 -2 -5 -13z"/>
<path d="M121 634 c0 -11 3 -14 6 -6 3 7 2 16 -1 19 -3 4 -6 -2 -5 -13z"/>
<path d="M1796 589 c-8 -42 0 -50 9 -9 4 17 5 34 2 36 -2 3 -7 -10 -11 -27z"/>
<path d="M102 555 c0 -16 2 -22 5 -12 2 9 2 23 0 30 -3 6 -5 -1 -5 -18z"/>
<path d="M131 564 c0 -11 3 -14 6 -6 3 7 2 16 -1 19 -3 4 -6 -2 -5 -13z"/>
<path d="M161 564 c0 -11 3 -14 6 -6 3 7 2 16 -1 19 -3 4 -6 -2 -5 -13z"/>
<path d="M142 515 c0 -16 2 -22 5 -12 2 9 2 23 0 30 -3 6 -5 -1 -5 -18z"/>
<path d="M181 464 c0 -11 3 -14 6 -6 3 7 2 16 -1 19 -3 4 -6 -2 -5 -13z"/>
<path d="M161 444 c0 -11 3 -14 6 -6 3 7 2 16 -1 19 -3 4 -6 -2 -5 -13z"/>
<path d="M232 440 c0 -14 2 -19 5 -12 2 6 2 18 0 25 -3 6 -5 1 -5 -13z"/>
<path d="M242 385 c0 -16 2 -22 5 -12 2 9 2 23 0 30 -3 6 -5 -1 -5 -18z"/>
<path d="M302 390 c0 -14 2 -19 5 -12 2 6 2 18 0 25 -3 6 -5 1 -5 -13z"/>
<path d="M341 334 c0 -11 3 -14 6 -6 3 7 2 16 -1 19 -3 4 -6 -2 -5 -13z"/>
<path d="M372 310 c0 -14 2 -19 5 -12 2 6 2 18 0 25 -3 6 -5 1 -5 -13z"/>
<path d="M1490 321 c0 -6 4 -13 10 -16 6 -3 7 1 4 9 -7 18 -14 21 -14 7z"/>
<path d="M312 300 c0 -14 2 -19 5 -12 2 6 2 18 0 25 -3 6 -5 1 -5 -13z"/>
<path d="M432 270 c0 -14 2 -19 5 -12 2 6 2 18 0 25 -3 6 -5 1 -5 -13z"/>
<path d="M386 220 c3 -36 10 -83 16 -105 5 -22 12 -57 15 -78 3 -20 10 -37 15
-37 6 0 8 10 5 23 -3 12 -12 56 -21 97 -38 180 -36 172 -30 100z"/>
<path d="M411 255 c-1 -10 25 -180 35 -228 4 -19 12 -27 26 -27 23 0 23 0 -12
160 -23 106 -25 90 -5 -36 21 -129 14 -142 -9 -18 -21 108 -34 165 -35 149z"/>
<path d="M472 190 c0 -14 2 -19 5 -12 2 6 2 18 0 25 -3 6 -5 1 -5 -13z"/>
<path d="M1515 189 c-4 -6 -5 -12 -2 -15 2 -3 7 2 10 11 7 17 1 20 -8 4z"/>
<path d="M505 165 c7 -42 15 -154 10 -130 -3 11 -10 44 -16 73 -16 80 -22 55
-8 -32 8 -49 17 -76 26 -76 18 0 17 81 -2 145 -8 28 -13 37 -10 20z"/>
<path d="M531 154 c0 -11 3 -14 6 -6 3 7 2 16 -1 19 -3 4 -6 -2 -5 -13z"/>
<path d="M612 70 c0 -14 4 -36 8 -50 6 -20 8 -21 8 -5 0 11 -4 34 -8 50 -7 27
-8 27 -8 5z"/>
<path d="M563 42 c2 -17 7 -35 10 -39 11 -10 8 40 -3 57 -7 11 -9 6 -7 -18z"/>
<path d="M593 35 c0 -22 2 -30 4 -17 2 12 2 30 0 40 -3 9 -5 -1 -4 -23z"/>
<path d="M1707 57 c-10 -26 -9 -57 2 -57 13 0 18 22 11 50 -5 22 -7 23 -13 7z"/>
<path d="M542 30 c0 -19 2 -27 5 -17 2 9 2 25 0 35 -3 9 -5 1 -5 -18z"/>
<path d="M641 33 c-1 -12 4 -25 9 -28 12 -7 12 2 0 30 -8 19 -9 19 -9 -2z"/>
<path d="M671 24 c0 -11 3 -14 6 -6 3 7 2 16 -1 19 -3 4 -6 -2 -5 -13z"/>
<path d="M691 24 c0 -11 3 -14 6 -6 3 7 2 16 -1 19 -3 4 -6 -2 -5 -13z"/>
</g>
</svg>
