<?xml version="1.0" standalone="no"?>
<!DOCTYPE svg PUBLIC "-//W3C//DTD SVG 20010904//EN"
 "http://www.w3.org/TR/2001/REC-SVG-20010904/DTD/svg10.dtd">
<svg version="1.0" xmlns="http://www.w3.org/2000/svg"
 width="512.000000pt" height="512.000000pt" viewBox="0 0 512.000000 512.000000"
 preserveAspectRatio="xMidYMid meet">

<g transform="translate(0.000000,512.000000) scale(0.100000,-0.100000)"
fill="#000000" stroke="none">
<path d="M233 4530 c-85 -17 -159 -74 -201 -154 l-27 -51 0 -1765 0 -1765 27
-51 c31 -59 84 -108 147 -138 46 -21 51 -21 987 -21 912 0 943 1 963 19 25 22
28 73 7 102 -14 18 -33 19 -398 24 l-383 5 -5 145 c-6 170 -3 163 -140 305
l-88 90 -4 81 c-10 185 -136 328 -321 365 -158 32 -337 -62 -413 -216 -26 -55
-29 -69 -29 -165 0 -96 3 -110 29 -165 36 -72 106 -144 173 -178 59 -30 160
-52 207 -44 30 5 38 0 85 -47 50 -51 51 -52 51 -114 l0 -63 -322 3 c-304 3
-325 4 -358 23 -74 43 -70 -4 -70 893 l0 802 48 0 c44 0 51 -4 99 -52 l51 -53
4 -85 c3 -64 11 -99 30 -141 89 -196 319 -281 511 -191 109 51 168 117 207
233 60 175 -25 375 -195 462 -51 26 -74 31 -150 35 l-90 4 -106 104 c-125 124
-147 134 -306 134 l-103 0 0 340 0 340 220 0 c207 0 221 1 240 20 25 25 26 71
1 101 -19 24 -22 24 -240 27 l-221 3 0 272 c0 305 3 323 70 362 35 20 40 20
2340 20 2300 0 2305 0 2340 -20 59 -34 70 -71 70 -222 l0 -133 -1292 0 c-779
0 -1316 -4 -1352 -10 -98 -16 -140 -43 -223 -144 -42 -50 -86 -98 -97 -106
-18 -13 -104 -16 -573 -20 -552 -5 -552 -5 -574 -27 -27 -27 -29 -75 -4 -103
18 -20 30 -20 575 -20 399 0 567 3 591 12 60 20 108 59 175 142 111 136 -74
121 1451 124 l1323 2 0 -135 0 -135 -168 0 -167 0 -45 47 c-26 26 -73 59 -110
77 -59 28 -74 31 -165 31 -88 0 -107 -3 -157 -27 -305 -142 -300 -568 8 -710
41 -19 66 -23 149 -23 88 0 107 3 158 27 31 15 81 50 110 77 l54 51 166 0 167
0 0 -460 0 -460 -83 0 -83 0 -51 53 -51 52 -4 88 c-4 73 -8 92 -26 109 -27 28
-77 28 -104 0 -19 -19 -22 -31 -19 -103 2 -71 -1 -89 -24 -135 -74 -151 -276
-174 -387 -44 -84 98 -78 224 16 316 61 59 118 79 202 68 48 -6 55 -4 78 19
80 81 -25 157 -176 129 -134 -25 -235 -101 -291 -220 -29 -61 -32 -76 -32
-162 0 -87 3 -101 32 -160 38 -78 109 -152 178 -185 59 -29 157 -49 198 -41
27 6 39 -3 132 -93 141 -137 136 -135 333 -139 l162 -4 0 -461 c0 -516 1 -511
-70 -552 -33 -19 -54 -20 -392 -23 l-358 -3 0 68 0 69 52 51 53 51 85 4 c66 4
98 11 143 32 72 34 148 111 184 185 25 50 28 67 28 161 0 99 -2 109 -33 172
-84 172 -280 257 -459 199 -166 -54 -273 -200 -273 -374 l0 -62 -91 -90 c-134
-134 -133 -132 -139 -310 l-5 -150 -651 -3 c-637 -2 -651 -3 -669 -22 -25 -28
-23 -76 4 -103 l22 -22 1247 0 c1247 0 1247 0 1293 21 63 30 116 79 147 138
l27 51 0 1765 0 1765 -27 51 c-31 59 -84 108 -147 138 l-46 21 -2310 1 c-1270
1 -2329 -2 -2352 -6z m4175 -946 c159 -66 193 -285 61 -398 -145 -124 -373
-28 -387 164 -7 102 56 202 150 237 47 17 133 16 176 -3z m562 -219 l0 -75
-135 0 -135 0 0 75 0 75 135 0 135 0 0 -75z m-4532 -689 l75 -74 -52 -52 -52
-52 -54 51 -54 51 -75 0 -76 0 0 75 0 75 106 0 107 0 75 -74z m398 -185 c123
-56 171 -220 98 -338 -123 -198 -433 -112 -434 120 0 98 50 178 135 218 53 24
147 25 201 0z m3860 -371 l53 -50 110 0 111 0 0 -75 0 -75 -141 0 -142 0 -75
73 -75 74 49 50 c27 28 51 51 53 52 2 1 28 -21 57 -49z m-281 -554 c89 -41
135 -115 135 -213 -1 -135 -100 -233 -235 -233 -99 0 -176 51 -215 142 -85
197 120 395 315 304z m-3578 -15 c139 -71 177 -251 76 -362 -65 -72 -147 -100
-232 -79 -149 36 -224 199 -156 337 58 116 198 163 312 104z m3207 -470 l52
-48 -48 -52 -47 -52 -3 -97 -3 -97 -72 -3 -73 -3 0 132 0 131 67 69 c36 38 68
69 71 69 3 0 28 -22 56 -49z m-2844 -229 l0 -123 -72 3 -73 3 -3 91 -3 90 -49
49 -49 48 52 53 52 53 73 -72 72 -71 0 -124z"/>
<path d="M945 4195 c-32 -31 -32 -66 0 -103 14 -17 25 -33 25 -37 0 -4 -11
-20 -25 -37 -38 -45 -32 -89 16 -114 35 -18 70 -10 100 22 l22 23 34 -29 c41
-36 63 -38 99 -7 37 32 37 78 0 116 -24 25 -25 29 -11 41 52 43 50 117 -5 140
-35 14 -59 8 -90 -25 l-23 -24 -34 29 c-41 36 -76 38 -108 5z"/>
<path d="M372 4110 c-32 -30 -30 -82 4 -109 24 -19 40 -21 169 -21 129 0 145
2 169 21 33 26 36 79 6 109 -18 18 -33 20 -173 20 -140 0 -155 -2 -175 -20z"/>
<path d="M1257 3338 c-39 -31 -38 -47 54 -508 49 -245 94 -455 100 -466 26
-49 95 -57 138 -16 25 23 43 72 127 344 53 175 99 316 102 313 2 -2 49 -147
103 -322 104 -338 116 -363 175 -363 38 0 80 26 92 57 11 27 182 884 182 911
0 22 -48 62 -75 62 -59 0 -66 -21 -135 -368 -36 -177 -67 -322 -70 -322 -3 0
-50 145 -104 323 -103 339 -116 367 -170 367 -52 0 -62 -22 -168 -368 -69
-222 -105 -327 -110 -315 -4 10 -32 149 -63 308 -61 320 -67 342 -92 361 -23
17 -64 18 -86 2z"/>
<path d="M3137 3330 l-27 -21 0 -473 0 -473 24 -22 c23 -22 28 -22 227 -19
192 3 207 4 253 27 194 96 240 345 91 498 -28 30 -49 56 -45 58 4 3 18 26 31
52 47 100 18 250 -63 318 -76 64 -98 70 -288 73 -167 3 -177 3 -203 -18z m358
-146 c88 -42 93 -166 9 -221 -19 -12 -55 -18 -135 -21 l-109 -5 0 132 0 131
101 0 c71 0 111 -5 134 -16z m72 -414 c112 -68 98 -235 -23 -286 -22 -9 -74
-14 -159 -14 l-125 0 0 160 0 160 138 0 c118 0 141 -3 169 -20z"/>
<path d="M2481 3314 c-21 -26 -21 -36 -21 -486 l0 -459 25 -24 c24 -25 24 -25
235 -25 l211 0 26 26 c20 20 24 31 19 57 -12 61 -30 67 -207 67 l-159 0 0 145
0 145 150 0 c141 0 150 1 170 22 22 24 26 58 10 88 -16 30 -66 40 -201 40
l-129 0 0 140 0 140 150 0 c160 0 191 7 209 47 16 34 14 47 -10 77 l-20 26
-219 0 -219 0 -20 -26z"/>
<path d="M2900 2186 c-109 -30 -194 -99 -239 -196 l-26 -55 0 -315 0 -315 33
-67 c131 -267 512 -259 638 14 l29 63 3 265 c4 279 -3 352 -39 423 -47 90
-136 160 -238 183 -68 17 -102 16 -161 0z m138 -148 c62 -15 125 -78 140 -140
15 -60 16 -508 1 -561 -14 -52 -71 -112 -125 -133 -85 -32 -185 -1 -239 75
l-30 43 -3 283 c-3 265 -2 287 17 322 26 51 70 92 117 108 49 18 64 18 122 3z"/>
<path d="M1913 2166 c-119 -39 -222 -158 -223 -258 0 -28 6 -42 26 -57 53 -42
99 -20 128 61 49 135 232 156 306 36 65 -107 8 -232 -117 -259 -69 -15 -103
-41 -103 -81 0 -37 30 -65 77 -73 156 -24 221 -173 125 -287 -60 -71 -172 -78
-241 -15 -29 27 -60 93 -61 128 0 34 -27 66 -62 75 -22 5 -34 0 -59 -25 -30
-30 -31 -35 -25 -84 9 -73 48 -147 104 -199 131 -123 329 -115 451 17 63 68
85 124 85 215 0 84 -21 143 -74 210 l-31 39 35 45 c77 102 94 233 43 338 -32
66 -100 132 -165 160 -58 26 -162 33 -219 14z"/>
<path d="M2416 1169 c-52 -41 -19 -129 49 -129 38 0 75 37 75 75 0 38 -37 75
-75 75 -12 0 -34 -9 -49 -21z"/>
</g>
</svg>
