<?xml version="1.0" standalone="no"?>
<!DOCTYPE svg PUBLIC "-//W3C//DTD SVG 20010904//EN"
 "http://www.w3.org/TR/2001/REC-SVG-20010904/DTD/svg10.dtd">
<svg version="1.0" xmlns="http://www.w3.org/2000/svg"
 width="460.000000pt" height="460.000000pt" viewBox="0 0 460.000000 460.000000"
 preserveAspectRatio="xMidYMid meet">

<g transform="translate(0.000000,460.000000) scale(0.100000,-0.100000)"
fill="#000000" stroke="none">
<path d="M4544 4575 c-3 -14 -10 -25 -14 -25 -4 0 -10 -14 -14 -31 -4 -20 -10
-28 -18 -23 -8 5 -9 2 -5 -9 4 -10 2 -16 -6 -14 -7 1 -11 -7 -10 -21 2 -13 -1
-21 -7 -17 -6 3 -10 1 -10 -4 0 -6 5 -11 11 -11 6 0 3 -7 -5 -16 -9 -9 -14
-26 -12 -40 3 -13 1 -24 -4 -24 -5 0 -7 -7 -4 -15 4 -10 0 -15 -12 -15 -16 0
-17 -2 -4 -10 10 -7 12 -12 4 -17 -6 -5 -10 -18 -9 -31 1 -16 -5 -24 -21 -28
-12 -3 -25 -13 -29 -21 -4 -13 -3 -14 9 -4 9 8 16 8 20 2 4 -5 -3 -12 -14 -16
-15 -5 -19 -12 -15 -26 4 -12 2 -19 -7 -19 -10 0 -9 -3 2 -10 13 -8 12 -10 -3
-10 -10 0 -15 -4 -12 -10 3 -5 0 -10 -7 -10 -9 0 -9 -3 -2 -8 6 -4 14 -15 17
-26 6 -16 3 -18 -21 -14 -16 2 -29 -1 -29 -6 0 -6 -4 -20 -8 -31 -5 -16 -5
-17 4 -5 15 21 14 -1 -2 -39 -7 -17 -16 -28 -20 -25 -3 3 -6 -2 -6 -12 0 -11
-3 -30 -5 -44 -2 -14 -5 -28 -5 -32 -1 -5 -6 -8 -12 -8 -7 0 -9 10 -5 28 5 24
5 25 -5 8 -9 -14 -9 -24 0 -37 14 -23 14 -32 1 -24 -6 3 -7 -1 -4 -9 3 -9 1
-16 -4 -16 -6 0 -13 10 -15 23 -2 12 -3 6 -1 -14 3 -26 -1 -39 -11 -43 -17 -6
-20 -26 -4 -26 5 0 7 5 4 10 -3 6 -1 10 6 10 6 0 9 -8 6 -20 -3 -12 1 -24 11
-30 10 -5 13 -10 8 -10 -5 0 -17 7 -26 15 -16 14 -17 14 -13 -10 3 -15 1 -25
-6 -25 -9 0 -9 -5 -1 -20 6 -11 7 -20 3 -20 -4 0 -1 -5 7 -10 13 -8 12 -10 -4
-10 -12 0 -16 5 -12 16 3 8 2 12 -4 9 -13 -8 -13 -35 0 -35 6 0 10 -9 10 -20
0 -11 -4 -20 -10 -20 -5 0 -7 7 -4 15 4 10 0 15 -12 15 -16 0 -17 -2 -4 -10
13 -8 13 -10 1 -10 -11 0 -10 -4 4 -13 13 -10 15 -16 6 -21 -6 -4 -9 -11 -6
-16 3 -5 -7 -7 -21 -4 -22 4 -25 3 -16 -9 7 -8 8 -18 4 -22 -4 -5 1 -5 11 -2
11 4 17 1 17 -8 0 -17 -26 -20 -35 -5 -3 6 -11 10 -16 10 -6 0 -4 -7 5 -15 13
-13 13 -19 0 -43 -17 -33 -18 -45 -1 -36 6 4 3 -3 -7 -15 -17 -19 -17 -21 -3
-15 13 5 16 2 11 -10 -3 -9 -11 -13 -18 -9 -7 4 -7 1 1 -9 7 -8 10 -18 6 -21
-3 -4 -6 -20 -5 -37 0 -22 -4 -30 -16 -29 -11 0 -12 3 -4 6 17 7 15 20 -3 20
-8 0 -15 -6 -15 -14 0 -7 -6 -13 -12 -13 -8 0 -9 -3 -3 -8 12 -9 15 -82 4 -82
-5 0 0 -15 10 -33 14 -26 16 -34 5 -34 -7 0 -11 3 -9 7 2 3 -5 7 -16 7 -18 2
-18 0 3 -18 18 -16 19 -19 5 -15 -10 3 -16 2 -12 -3 3 -5 -1 -12 -7 -14 -10
-4 -10 -6 0 -6 7 -1 10 -6 6 -13 -4 -7 -3 -8 4 -4 7 4 12 2 12 -3 0 -6 -8 -11
-17 -12 -16 0 -16 -1 1 -8 17 -7 17 -8 2 -23 -19 -20 -21 -38 -3 -38 8 0 7 -4
-3 -10 -12 -8 -12 -10 5 -11 17 -1 16 -2 -5 -9 -18 -6 -20 -8 -7 -9 10 -1 15
-6 12 -11 -4 -6 -9 -8 -13 -6 -4 2 -7 -7 -7 -20 0 -15 6 -24 15 -24 9 0 11 -3
5 -8 -15 -11 -13 -71 3 -65 8 4 10 0 6 -11 -3 -9 -11 -16 -18 -16 -6 0 -3 -5
7 -11 14 -8 15 -14 6 -31 -6 -11 -7 -18 -1 -14 5 3 15 0 21 -8 9 -11 6 -13
-16 -9 -21 2 -23 1 -10 -5 10 -4 18 -12 17 -16 -1 -5 4 -13 12 -18 8 -5 2 -6
-17 -3 -25 5 -27 4 -12 -5 9 -6 17 -16 17 -21 0 -6 -5 -7 -12 -3 -6 4 -8 3 -4
-4 3 -5 3 -12 -1 -15 -5 -2 -3 -3 3 -1 6 1 17 -2 25 -8 11 -8 10 -9 -3 -4 -13
4 -18 0 -18 -12 0 -13 -2 -14 -9 -4 -7 11 -9 11 -14 -2 -4 -9 -1 -16 6 -16 9
0 8 -3 -1 -9 -11 -6 -10 -11 3 -25 15 -15 15 -16 -5 -16 -12 0 -18 5 -15 10 8
13 -8 13 -21 0 -7 -7 -11 -6 -11 5 0 8 7 15 14 15 12 0 11 3 -1 16 -9 8 -13
20 -10 26 5 7 2 8 -5 4 -7 -5 -10 -14 -7 -22 3 -8 3 -14 1 -14 -3 0 -18 27
-34 60 -16 33 -26 60 -23 60 21 0 -99 101 -141 120 -29 12 -92 42 -142 65 -49
24 -141 65 -203 92 -103 44 -116 53 -156 104 -24 31 -49 66 -55 78 -18 32 -35
26 -27 -10 7 -37 -12 -111 -27 -102 -6 3 -7 2 -4 -4 3 -5 -4 -29 -16 -54 -20
-39 -56 -78 -176 -189 l-33 -31 -22 48 c-13 26 -29 72 -35 101 -15 59 -23 62
-81 32 -22 -11 -56 -20 -77 -20 -32 0 -42 5 -57 30 -9 17 -28 38 -42 46 -23
15 -26 15 -71 -23 -27 -22 -73 -51 -103 -65 -125 -58 -171 -78 -179 -78 -5 0
-41 -13 -79 -30 -39 -16 -80 -30 -90 -30 -23 0 -102 -73 -102 -95 0 -8 -18
-48 -39 -89 -36 -68 -122 -320 -151 -441 -6 -27 -25 -71 -41 -96 -25 -40 -48
-95 -132 -324 -6 -16 -28 -62 -48 -100 -34 -62 -39 -83 -48 -178 -12 -123 -4
-183 33 -254 50 -95 53 -97 179 -100 62 -2 145 -8 185 -13 40 -6 94 -10 118
-10 l45 0 -6 -37 c-4 -21 -11 -60 -16 -88 -5 -27 -20 -111 -34 -185 -13 -74
-32 -169 -40 -210 -9 -41 -20 -95 -25 -120 -16 -80 -42 -194 -51 -225 -4 -16
-11 -52 -14 -80 -4 -27 -9 -58 -11 -67 -5 -17 28 -18 591 -18 l596 0 56 45
c30 25 60 45 66 45 19 0 36 -45 25 -65 -14 -24 -7 -26 63 -23 l64 3 -63 45
c-111 79 -109 78 -91 85 44 17 173 -62 192 -118 6 -16 44 -17 602 -17 l595 0
0 2300 0 2300 -25 0 c-18 0 -26 -7 -31 -25z m-224 -660 c0 -8 -2 -15 -4 -15
-2 0 -6 7 -10 15 -3 8 -1 15 4 15 6 0 10 -7 10 -15z m-93 -267 c-3 -8 -6 -5
-6 6 -1 11 2 17 5 13 3 -3 4 -12 1 -19z m-153 -893 c-4 -8 -11 -15 -16 -15 -6
0 -5 6 2 15 7 8 14 15 16 15 2 0 1 -7 -2 -15z m-1294 -61 c0 -6 13 -25 29 -43
28 -31 33 -33 75 -27 39 6 47 11 52 34 11 43 22 53 45 39 10 -6 19 -16 19 -22
0 -11 -29 -86 -81 -210 -21 -49 -41 -103 -44 -120 -4 -16 -22 -70 -40 -120
-18 -49 -38 -115 -45 -145 -13 -58 -67 -224 -80 -250 -5 -9 -31 -35 -59 -58
l-50 -43 -16 31 c-8 16 -13 30 -9 30 4 0 2 6 -4 13 -11 13 -70 158 -76 185 -4
20 -13 45 -33 90 -25 56 -18 166 26 412 9 48 50 176 51 158 0 -4 11 3 25 16
14 13 44 27 67 30 24 4 50 14 60 23 10 9 18 13 18 9 0 -4 10 3 23 14 l22 21
12 -28 c7 -15 12 -33 13 -39z m565 -423 c-10 -9 -134 -31 -176 -31 -46 0 -5
15 69 26 103 15 118 16 107 5z m-1182 -677 l6 -52 -55 -7 c-31 -4 -58 -4 -61
-1 -4 3 2 25 12 48 37 88 58 133 69 147 11 14 15 -4 29 -135z m552 121 c-16
-13 -44 -30 -62 -36 -26 -11 -61 -54 -51 -65 2 -1 21 1 43 5 22 5 78 11 125
14 l85 6 -74 -20 c-45 -12 -88 -31 -110 -50 -19 -16 -41 -29 -47 -29 -17 0
-25 -28 -11 -37 6 -4 27 -9 46 -12 19 -4 36 -11 38 -18 5 -14 -73 -57 -88 -48
-12 8 -2 25 16 25 18 0 69 19 64 24 -4 4 -81 -14 -126 -29 -13 -4 -23 -14 -23
-21 0 -9 -12 -14 -34 -14 -19 0 -36 -6 -39 -12 -3 -10 -7 -10 -18 -2 -8 6 -22
12 -31 13 -10 0 -26 2 -35 2 -10 1 -24 6 -30 12 -19 14 -17 -99 1 -151 l15
-40 -35 20 c-19 11 -34 17 -34 13 0 -3 -13 2 -30 12 -34 20 -38 46 -20 131 8
36 22 59 53 90 41 41 109 77 121 65 3 -3 25 12 48 33 54 50 104 80 187 115 83
35 94 35 56 4z m175 -60 c-7 -8 -17 -15 -23 -15 -6 0 -2 7 9 15 25 19 30 19
14 0z m-495 -555 c8 -13 -5 -13 -25 0 -13 8 -13 10 2 10 9 0 20 -4 23 -10z"/>
<path d="M2855 2590 c3 -5 8 -10 11 -10 2 0 4 5 4 10 0 6 -5 10 -11 10 -5 0
-7 -4 -4 -10z"/>
<path d="M2680 4189 c-60 -10 -84 -18 -177 -61 -63 -28 -82 -51 -97 -110 -6
-28 6 -39 20 -17 3 6 34 24 68 40 71 34 162 39 214 13 35 -17 39 -26 19 -43
-8 -6 -20 -29 -27 -51 -7 -22 -19 -45 -27 -51 -7 -6 -13 -16 -13 -21 0 -5 -10
-22 -21 -38 -14 -19 -20 -37 -17 -55 4 -21 2 -25 -11 -20 -45 19 -76 23 -126
18 -67 -7 -78 -18 -65 -64 6 -18 10 -51 10 -71 0 -42 6 -47 25 -21 11 15 17
15 39 5 15 -7 25 -16 21 -21 -3 -5 -1 -12 5 -16 5 -3 10 1 10 9 0 9 5 16 12
16 7 0 28 11 47 24 34 23 121 51 121 38 0 -3 -5 -21 -12 -39 -16 -43 -83 -78
-134 -70 -29 5 -34 3 -34 -14 0 -10 5 -19 10 -19 6 0 10 -9 10 -19 0 -29 11
-51 25 -51 11 0 11 -8 3 -37 -5 -21 -11 -39 -12 -40 -1 -1 -18 2 -38 8 -41 11
-53 34 -39 71 13 35 -19 88 -53 88 -14 0 -28 -5 -31 -10 -4 -6 -12 -8 -18 -4
-7 3 -3 -2 7 -10 11 -9 27 -16 37 -16 9 0 19 -7 23 -15 7 -18 -28 -20 -70 -5
-22 9 -31 8 -43 -5 -15 -15 -13 -19 18 -45 32 -27 34 -31 22 -56 -14 -32 -6
-61 20 -69 13 -4 19 -15 19 -34 0 -16 10 -41 22 -57 14 -17 21 -38 19 -56 -4
-46 46 -86 120 -94 49 -5 59 -10 59 -26 0 -29 36 -93 78 -139 l39 -41 19 24
c28 35 132 112 189 141 28 14 67 38 87 53 21 16 49 37 63 47 28 20 32 52 9 82
-14 19 -15 18 -8 -19 8 -45 -9 -43 -28 2 -18 43 -18 59 -3 59 8 0 12 -4 9 -9
-3 -4 0 -8 6 -8 8 0 9 7 5 18 -4 9 -10 38 -12 63 -5 40 1 56 42 135 27 49 57
99 67 110 43 48 49 274 10 364 -37 85 -93 142 -184 188 -115 57 -216 72 -348
51z"/>
<path d="M4306 4085 c4 -8 8 -15 10 -15 2 0 4 7 4 15 0 8 -4 15 -10 15 -5 0
-7 -7 -4 -15z"/>
<path d="M2343 3708 c3 -35 8 -44 24 -46 29 -4 40 32 19 63 -27 41 -47 32 -43
-17z"/>
<path d="M0 3390 c0 -11 4 -20 9 -20 5 0 7 9 4 20 -3 11 -7 20 -9 20 -2 0 -4
-9 -4 -20z"/>
<path d="M6 3325 c-3 -9 0 -15 9 -15 8 0 15 7 15 15 0 8 -4 15 -9 15 -5 0 -11
-7 -15 -15z"/>
<path d="M4087 3310 c-3 -11 -1 -20 4 -20 5 0 9 9 9 20 0 11 -2 20 -4 20 -2 0
-6 -9 -9 -20z"/>
<path d="M10 3291 c0 -6 5 -13 10 -16 6 -3 10 1 10 9 0 9 -4 16 -10 16 -5 0
-10 -4 -10 -9z"/>
<path d="M2 3226 c1 -26 6 -36 17 -36 9 0 12 3 6 8 -5 4 -12 18 -13 32 -6 39
-12 37 -10 -4z"/>
<path d="M27 3230 c3 -11 7 -20 9 -20 2 0 4 9 4 20 0 11 -4 20 -9 20 -5 0 -7
-9 -4 -20z"/>
<path d="M0 3160 c0 -11 7 -20 15 -20 8 0 15 9 15 20 0 11 -7 20 -15 20 -8 0
-15 -9 -15 -20z"/>
<path d="M0 3121 c0 -6 5 -13 11 -17 8 -4 7 -9 -2 -15 -10 -6 -11 -9 -1 -9 6
0 12 -8 12 -17 0 -15 -2 -16 -10 -3 -6 10 -10 -534 -10 -1523 l0 -1537 520 0
c465 1 554 5 508 23 -10 4 -10 6 0 6 10 1 10 6 2 21 -6 11 -8 25 -5 30 3 6 1
10 -5 10 -7 0 -10 6 -7 14 3 8 -1 17 -10 20 -11 5 -14 2 -9 -9 3 -9 2 -13 -4
-10 -6 3 -10 12 -10 20 0 7 -6 16 -12 19 -7 4 -3 4 10 2 12 -2 22 0 22 5 0 5
-17 10 -37 10 l-38 2 35 7 35 7 -30 3 -30 2 30 8 c17 4 22 8 12 9 -9 0 -16 6
-15 13 2 7 -10 15 -27 19 -28 6 -28 7 -5 9 l25 2 -25 8 c-18 6 -20 8 -7 9 11
1 17 7 14 14 -2 6 -10 11 -16 9 -15 -3 -14 15 1 22 7 4 3 4 -9 2 -13 -2 -26 0
-29 5 -3 5 2 9 10 9 9 0 16 5 16 11 0 5 -5 7 -10 4 -6 -3 -10 -2 -10 4 0 5 6
12 13 15 6 3 2 3 -10 0 -13 -3 -23 -3 -23 1 0 3 10 10 23 15 21 8 21 9 -5 9
-15 1 -31 7 -35 15 -4 7 -21 18 -38 24 l-30 12 32 -6 c19 -3 34 0 39 7 4 8 3
9 -4 5 -7 -4 -12 -3 -12 2 0 5 -8 12 -19 15 -20 5 -33 66 -19 91 6 11 3 13
-12 9 -11 -3 -17 -9 -14 -14 3 -5 0 -9 -5 -9 -6 0 -11 11 -11 24 0 18 7 26 23
29 16 3 12 5 -13 7 l-35 2 30 8 c28 7 27 8 -13 9 -36 1 -41 3 -30 15 8 8 15
10 19 4 3 -5 9 -3 12 6 7 19 -13 22 -30 5 -9 -9 -12 -7 -10 9 0 11 5 20 10 19
5 -1 12 4 14 11 4 9 -7 12 -38 10 -32 -2 -44 1 -44 11 0 8 -9 17 -20 21 -17 6
-16 7 8 14 21 5 27 12 27 34 0 21 -2 24 -10 12 -8 -13 -10 -12 -10 3 0 9 5 17
10 17 6 0 10 7 10 15 0 8 5 15 10 15 6 0 10 8 10 18 0 11 -3 13 -8 5 -8 -12
-52 -14 -52 -2 0 11 -48 3 -65 -11 -17 -14 -17 -14 -4 8 9 14 25 23 44 23 26
2 25 3 -10 9 -31 6 -34 7 -12 9 15 0 27 6 27 12 0 7 -10 9 -25 5 -19 -5 -23
-3 -19 9 4 10 0 15 -11 15 -9 0 -14 4 -10 10 3 5 12 7 20 3 8 -3 15 -1 15 5 0
5 -7 13 -16 16 -8 3 -12 10 -9 16 3 5 2 10 -4 10 -5 0 -13 -4 -16 -10 -3 -5
-10 -10 -16 -10 -5 0 -1 8 9 18 9 11 20 17 25 15 4 -2 7 0 7 6 0 5 -6 12 -12
14 -10 4 -10 6 0 6 6 1 12 6 12 12 0 5 -4 8 -9 5 -5 -3 -12 1 -15 10 -5 12 -2
15 9 10 9 -3 13 -2 10 4 -3 6 -18 7 -32 4 -24 -6 -25 -5 -19 20 4 18 3 25 -4
21 -5 -3 -10 1 -10 9 0 9 6 16 13 16 9 0 8 3 -2 9 -11 7 -11 9 0 14 8 3 3 6
-11 7 -14 1 -19 4 -13 7 7 2 13 9 13 14 0 6 -4 8 -9 4 -5 -3 -12 -1 -16 5 -3
5 2 10 12 11 16 0 16 1 -2 9 l-20 9 20 1 20 1 -20 9 -20 9 20 1 c17 0 16 3 -8
18 -15 9 -30 25 -33 35 -3 10 -10 14 -17 10 -7 -4 -6 1 2 10 7 9 9 17 4 17 -5
0 -10 7 -10 15 0 9 6 14 14 11 19 -8 11 18 -8 26 -12 4 -15 14 -11 33 3 17 0
30 -9 36 -12 8 -12 11 1 19 12 8 12 10 -5 10 -11 0 -27 5 -35 11 -12 8 -11 9
6 4 15 -4 24 0 28 10 3 9 2 13 -4 10 -6 -4 -10 6 -11 22 0 24 -1 25 -8 8 -7
-17 -9 -16 -15 12 -4 18 -7 36 -6 39 1 4 -4 11 -12 15 -11 7 -11 9 0 9 17 0 6
40 -15 55 -8 6 -14 15 -13 20 5 23 -1 35 -17 36 -11 0 -13 3 -6 6 21 8 15 40
-10 47 -20 7 -21 8 -3 15 17 7 17 8 2 24 -10 9 -14 21 -11 27 3 6 -4 10 -17
11 -23 0 -23 0 2 11 22 10 23 12 7 15 -15 4 -18 12 -15 33 2 16 1 27 -4 24 -4
-3 -8 -1 -8 5 0 5 6 12 13 14 10 4 10 6 0 6 -7 1 -13 7 -13 15 0 8 -8 17 -17
19 -13 3 -14 5 -3 6 12 1 14 12 11 52 -2 34 -7 49 -15 46 -7 -3 -13 3 -13 13
-1 11 6 21 15 23 15 4 15 5 0 6 -12 1 -18 9 -18 26 0 16 -6 25 -15 25 -8 0
-15 5 -15 11 0 5 4 8 9 5 5 -3 11 3 14 13 3 12 -1 22 -10 25 -9 4 -12 13 -8
26 5 15 3 18 -9 14 -9 -3 -16 -1 -16 6 0 6 4 9 9 6 5 -3 14 0 20 8 8 10 8 16
-2 25 -8 6 -16 8 -19 5 -3 -3 -9 16 -12 41 -4 25 -12 45 -18 45 -6 0 -8 13 -6
30 3 17 1 30 -4 30 -5 0 -6 5 -3 10 3 6 -1 13 -10 16 -13 5 -14 9 -4 15 10 6
10 11 -2 25 -11 13 -11 18 -1 21 8 3 5 11 -10 24 -22 18 -22 18 -3 19 12 1 15
4 7 7 -10 4 -10 8 0 21 10 12 10 14 0 8 -8 -5 -12 1 -12 18 0 14 1 27 2 29 1
1 -4 12 -10 24 -8 14 -9 24 -2 28 5 3 10 11 10 16 0 6 -5 7 -11 4 -7 -5 -9 11
-8 46 2 34 -2 54 -9 57 -7 2 -12 11 -12 20 0 14 2 15 9 3 6 -10 9 1 9 32 0 26
-4 49 -9 53 -5 3 -9 15 -8 27 l0 22 9 -22 c12 -30 18 -29 12 2 -2 14 -9 25
-16 25 -6 0 -4 5 4 10 13 9 13 10 0 10 -11 0 -12 2 -2 8 9 6 6 14 -13 30 -14
12 -25 18 -25 13z m287 -1357 c-3 -3 -12 -4 -19 -1 -8 3 -5 6 6 6 11 1 17 -2
13 -5z m190 -626 c-3 -8 -6 -5 -6 6 -1 11 2 17 5 13 3 -3 4 -12 1 -19z m46
-95 c-7 -2 -19 -2 -25 0 -7 3 -2 5 12 5 14 0 19 -2 13 -5z m-6 -19 c-3 -3 -12
-4 -19 -1 -8 3 -5 6 6 6 11 1 17 -2 13 -5z m143 -198 c0 -2 -7 -6 -15 -10 -8
-3 -15 -1 -15 4 0 6 7 10 15 10 8 0 15 -2 15 -4z m340 -756 c0 -5 -5 -10 -11
-10 -5 0 -7 5 -4 10 3 6 8 10 11 10 2 0 4 -4 4 -10z"/>
<path d="M4038 2653 c7 -3 16 -2 19 1 4 3 -2 6 -13 5 -11 0 -14 -3 -6 -6z"/>
<path d="M578 1053 c7 -3 16 -2 19 1 4 3 -2 6 -13 5 -11 0 -14 -3 -6 -6z"/>
<path d="M571 1014 c0 -11 3 -14 6 -6 3 7 2 16 -1 19 -3 4 -6 -2 -5 -13z"/>
<path d="M590 985 c0 -8 4 -15 10 -15 5 0 7 7 4 15 -4 8 -8 15 -10 15 -2 0 -4
-7 -4 -15z"/>
<path d="M590 932 c0 -4 9 -8 20 -9 11 -1 20 2 20 8 0 5 -9 9 -20 9 -11 0 -20
-4 -20 -8z"/>
<path d="M680 729 c0 -5 -8 -6 -17 -3 -15 5 -15 4 1 -6 15 -10 16 -14 5 -22
-9 -5 0 -6 26 -2 22 4 42 8 44 10 5 4 -28 8 -43 5 -5 -1 -4 4 2 12 9 11 8 14
-3 14 -8 0 -15 -4 -15 -8z"/>
<path d="M818 533 c6 -2 18 -2 25 0 6 3 1 5 -13 5 -14 0 -19 -2 -12 -5z"/>
<path d="M834 488 c3 -12 1 -15 -10 -11 -7 3 -14 0 -14 -6 0 -6 9 -11 20 -11
22 0 25 8 9 30 -9 13 -10 12 -5 -2z"/>
</g>
</svg>
