<?xml version="1.0" standalone="no"?>
<!DOCTYPE svg PUBLIC "-//W3C//DTD SVG 20010904//EN"
 "http://www.w3.org/TR/2001/REC-SVG-20010904/DTD/svg10.dtd">
<svg version="1.0" xmlns="http://www.w3.org/2000/svg"
 width="209.000000pt" height="241.000000pt" viewBox="0 0 209.000000 241.000000"
 preserveAspectRatio="xMidYMid meet">

<g transform="translate(0.000000,241.000000) scale(0.100000,-0.100000)"
fill="#000000" stroke="none">
<path d="M555 2050 l-480 -279 0 -566 0 -567 484 -279 c266 -153 484 -279 486
-279 1 0 220 126 486 279 l484 279 0 567 0 567 -483 279 c-266 153 -487 279
-490 278 -4 0 -223 -126 -487 -279z m1210 -344 c-112 -41 -255 -109 -361 -173
-58 -35 -86 -47 -100 -42 -28 11 -42 10 -21 -2 43 -25 5 -43 -49 -24 -66 24
-84 19 -41 -10 20 -14 37 -28 37 -30 0 -3 -23 -20 -51 -39 -46 -31 -53 -33
-77 -21 -15 8 -40 17 -57 20 l-30 7 29 -20 c55 -38 52 -45 -38 -105 -104 -69
-172 -104 -228 -116 -43 -10 -50 -9 -172 25 -73 20 -119 9 -174 -40 -20 -18
-47 -36 -59 -40 -12 -4 -50 -25 -83 -47 -33 -22 -67 -39 -77 -37 -10 2 17 23
70 57 48 30 87 58 87 62 0 5 6 9 14 9 29 0 114 90 150 159 44 85 84 119 201
176 201 96 550 186 965 249 152 23 166 19 65 -18z m-770 -739 l0 -78 28 35
c16 20 38 36 48 36 25 0 24 -9 -7 -41 l-26 -27 26 -38 c31 -46 32 -54 6 -54
-12 0 -26 12 -35 30 -19 37 -33 38 -37 3 -2 -17 -10 -29 -20 -31 -16 -3 -18 8
-18 123 0 115 2 126 18 123 14 -3 17 -15 17 -81z m285 -42 c0 -118 -1 -125
-20 -125 -11 0 -20 5 -20 12 0 9 -3 9 -12 0 -18 -18 -66 -14 -88 8 -29 29 -34
63 -16 99 19 35 56 49 92 32 24 -10 24 -10 24 44 0 48 2 55 20 55 19 0 20 -7
20 -125z m-1050 25 c0 -7 6 -7 19 0 27 14 41 13 41 -4 0 -8 -12 -21 -27 -28
-25 -12 -28 -20 -31 -66 -3 -44 -6 -52 -23 -52 -17 0 -19 7 -19 73 0 41 3 77
7 80 10 11 33 8 33 -3z m150 1 c0 -5 13 -4 29 2 20 7 36 8 52 1 16 -7 32 -7
50 0 20 7 35 6 53 -2 24 -11 26 -16 26 -83 0 -62 -2 -70 -17 -67 -14 2 -19 15
-21 61 -2 40 -8 60 -18 64 -27 10 -44 -17 -44 -73 0 -47 -2 -54 -20 -54 -18 0
-20 7 -20 60 0 68 -16 86 -50 55 -15 -13 -20 -31 -20 -67 0 -41 -3 -48 -20
-48 -18 0 -20 7 -20 73 0 41 3 77 7 80 10 10 33 8 33 -2z m361 -1 c13 -7 19
-7 19 0 0 5 7 10 15 10 12 0 15 -16 15 -80 0 -64 -3 -80 -15 -80 -8 0 -15 5
-15 10 0 7 -6 7 -19 0 -53 -28 -111 8 -111 69 0 62 57 99 111 71z m135 -1 c4
-8 9 -8 17 0 17 17 37 13 37 -8 0 -13 -8 -21 -22 -23 -20 -3 -23 -10 -26 -60
-3 -50 -6 -58 -22 -58 -18 0 -20 7 -20 80 0 63 3 80 14 80 8 0 18 -5 22 -11z
m565 -2 c65 -50 36 -147 -45 -147 -71 0 -105 96 -50 139 30 23 71 27 95 8z
m105 -34 l18 -47 19 42 c20 47 28 47 47 2 17 -40 24 -38 39 10 9 30 17 40 32
40 24 0 22 -9 -21 -104 l-27 -61 -22 44 -23 44 -25 -42 c-14 -23 -26 -41 -28
-39 -2 2 -15 32 -30 68 -15 36 -29 71 -32 78 -3 7 3 12 15 12 15 0 25 -12 38
-47z m234 37 c0 -7 6 -7 19 0 57 30 91 -5 91 -92 0 -51 -2 -58 -20 -58 -18 0
-20 7 -20 60 0 68 -16 86 -50 55 -15 -13 -20 -31 -20 -67 0 -41 -3 -48 -20
-48 -18 0 -20 7 -20 73 0 41 3 77 7 80 10 11 33 8 33 -3z m-164 -508 c1 -7 0
-8 -3 -2 -2 5 -9 10 -14 10 -6 0 -7 -5 -3 -12 4 -6 3 -8 -4 -4 -6 3 -13 -3
-17 -14 -7 -23 -35 -27 -35 -5 0 8 5 15 11 15 6 0 17 7 26 15 17 17 35 16 39
-3z m-92 -33 c-3 -6 -1 -15 6 -19 9 -5 8 -9 -3 -13 -10 -4 -14 1 -12 16 3 26
3 27 11 27 3 0 2 -5 -2 -11z m-71 -46 c-4 -11 -3 -14 5 -9 7 4 12 14 12 22 0
8 7 14 15 14 8 0 15 -7 15 -15 0 -8 -4 -15 -9 -15 -5 0 -33 -16 -62 -35 -53
-35 -69 -39 -76 -18 -2 6 7 9 21 8 19 -2 23 1 19 13 -4 15 -3 15 6 2 8 -11 11
-11 11 -2 0 19 31 63 41 57 4 -3 5 -13 2 -22z m-109 -68 c3 -8 1 -15 -4 -15
-6 0 -10 7 -10 15 0 8 2 15 4 15 2 0 6 -7 10 -15z m-30 -21 c3 -8 2 -12 -4 -9
-6 3 -10 0 -10 -7 0 -9 -3 -9 -10 2 -8 13 -10 13 -10 -1 0 -18 -48 -55 -57
-45 -4 3 -12 -3 -20 -13 -9 -13 -21 -18 -38 -15 -20 3 -23 1 -19 -13 5 -15 4
-16 -5 -3 -9 13 -11 13 -11 -1 0 -22 -24 -31 -40 -16 -10 10 -12 8 -7 -6 4
-11 3 -16 -3 -12 -6 3 -10 0 -10 -7 0 -9 -3 -9 -10 2 -8 12 -10 12 -11 -5 0
-13 -2 -15 -6 -6 -3 8 5 22 18 32 19 14 27 15 38 6 11 -10 13 -9 9 3 -2 8 4
20 16 26 12 6 20 16 18 23 -2 9 3 9 17 1 16 -8 21 -6 26 11 5 15 10 18 15 9 5
-8 9 -7 14 5 3 9 10 14 14 11 4 -3 21 6 38 19 35 29 40 30 48 9z"/>
<path d="M1492 1670 c-277 -70 -540 -176 -784 -317 -43 -25 -78 -46 -78 -48 0
-2 64 27 143 65 258 124 557 239 827 318 73 21 0 9 -108 -18z"/>
<path d="M1166 907 c-20 -30 -10 -66 20 -73 47 -12 73 45 38 80 -22 22 -41 20
-58 -7z"/>
<path d="M686 917 c-39 -29 1 -106 42 -81 24 16 28 65 6 81 -10 7 -21 13 -24
13 -3 0 -14 -6 -24 -13z"/>
<path d="M1372 918 c-7 -7 -12 -24 -12 -38 0 -48 49 -69 70 -31 14 27 13 47
-6 65 -19 19 -36 20 -52 4z"/>
<path d="M1427 346 c-4 -10 -1 -13 8 -9 8 3 12 9 9 14 -7 12 -11 11 -17 -5z"/>
<path d="M1220 228 c0 -4 4 -8 9 -8 6 0 12 4 15 8 3 5 -1 9 -9 9 -8 0 -15 -4
-15 -9z"/>
<path d="M1186 203 c-6 -14 -5 -15 5 -6 7 7 10 15 7 18 -3 3 -9 -2 -12 -12z"/>
</g>
</svg>
