<?xml version="1.0" standalone="no"?>
<!DOCTYPE svg PUBLIC "-//W3C//DTD SVG 20010904//EN"
 "http://www.w3.org/TR/2001/REC-SVG-20010904/DTD/svg10.dtd">
<svg version="1.0" xmlns="http://www.w3.org/2000/svg"
 width="225.000000pt" height="225.000000pt" viewBox="0 0 225.000000 225.000000"
 preserveAspectRatio="xMidYMid meet">

<g transform="translate(0.000000,225.000000) scale(0.100000,-0.100000)"
fill="#000000" stroke="none">
<path d="M995 2239 c-173 -18 -404 -111 -546 -218 -309 -235 -478 -621 -439
-1005 80 -790 929 -1250 1631 -885 209 109 373 274 481 485 87 171 120 309
120 509 0 197 -32 334 -118 506 -167 336 -508 570 -885 609 -112 11 -129 11
-244 -1z m290 -114 c165 -27 312 -89 449 -191 l78 -59 -38 -8 c-95 -19 -150
-94 -142 -192 5 -53 16 -79 106 -246 69 -127 87 -238 59 -360 -21 -85 -161
-549 -167 -549 -3 0 -87 243 -187 539 -176 521 -181 539 -160 545 12 3 41 6
63 6 46 0 67 17 62 51 l-3 23 -298 0 c-265 1 -300 -1 -308 -15 -16 -31 13 -52
78 -57 l61 -4 76 -212 c42 -116 76 -218 76 -226 0 -20 -213 -660 -220 -660 -4
0 -355 1037 -368 1088 -3 8 11 12 47 12 74 0 103 14 99 48 l-3 27 -182 -4
c-101 -2 -183 0 -183 4 0 17 75 107 139 168 239 225 552 323 866 272z m802
-680 c143 -421 -12 -887 -385 -1152 -35 -25 -65 -44 -67 -42 -2 2 73 225 167
494 206 595 209 607 211 752 l2 113 24 -47 c13 -27 35 -79 48 -118z m-1407
-1222 c0 -13 -63 21 -150 80 -63 42 -188 171 -237 242 -152 224 -213 493 -168
746 13 76 53 212 71 240 6 10 483 -1280 484 -1308z m626 373 c85 -231 151
-423 146 -428 -4 -4 -44 -17 -87 -29 -131 -35 -451 -28 -514 11 -11 6 10 79
109 367 168 490 183 530 188 513 3 -7 74 -203 158 -434z"/>
</g>
</svg>
