<?xml version="1.0" standalone="no"?>
<!DOCTYPE svg PUBLIC "-//W3C//DTD SVG 20010904//EN"
 "http://www.w3.org/TR/2001/REC-SVG-20010904/DTD/svg10.dtd">
<svg version="1.0" xmlns="http://www.w3.org/2000/svg"
 width="1024.000000pt" height="793.000000pt" viewBox="0 0 1024.000000 793.000000"
 preserveAspectRatio="xMidYMid meet">

<g transform="translate(0.000000,793.000000) scale(0.100000,-0.100000)"
fill="#000000" stroke="none">
<path d="M5709 5763 l-1486 -3 -5 -2208 c-2 -1214 -2 -2503 0 -2864 l5 -658
862 0 862 0 6 820 c4 451 4 958 0 1126 l-6 305 274 -3 c318 -3 317 -3 433
-110 117 -106 228 -273 400 -598 54 -102 110 -205 125 -230 14 -24 177 -328
362 -675 l336 -630 982 -3 983 -2 -14 22 c-31 49 -1165 1966 -1187 2008 -122
229 -288 344 -693 482 -87 29 -158 56 -158 61 0 4 13 7 30 7 107 0 428 95 602
179 231 110 464 301 598 489 312 437 368 1144 131 1647 -160 340 -466 593
-889 734 -250 84 -466 112 -826 109 -133 -2 -910 -4 -1727 -5z m1421 -1247
c104 -19 180 -55 246 -118 94 -88 134 -195 134 -353 0 -202 -80 -349 -236
-432 -113 -60 -124 -61 -742 -65 l-562 -3 0 493 0 492 543 0 c410 -1 560 -4
617 -14z"/>
</g>
</svg>
