<?xml version="1.0" standalone="no"?>
<!DOCTYPE svg PUBLIC "-//W3C//DTD SVG 20010904//EN"
 "http://www.w3.org/TR/2001/REC-SVG-20010904/DTD/svg10.dtd">
<svg version="1.0" xmlns="http://www.w3.org/2000/svg"
 width="300.000000pt" height="134.000000pt" viewBox="0 0 300.000000 134.000000"
 preserveAspectRatio="xMidYMid meet">

<g transform="translate(0.000000,134.000000) scale(0.100000,-0.100000)"
fill="#000000" stroke="none">
<path d="M0 1312 c0 -27 8 -31 218 -117 319 -131 344 -142 340 -161 -2 -10
-99 -55 -278 -128 l-275 -114 -3 -111 -3 -111 43 17 c24 9 99 40 167 69 l124
51 105 -43 c57 -24 108 -47 114 -50 30 -19 -15 -43 -272 -149 l-275 -113 -3
-171 c-2 -135 0 -171 10 -171 30 0 624 252 641 271 14 18 17 43 17 168 0 110
-4 152 -14 167 -8 11 -63 39 -123 64 -59 24 -112 46 -116 50 -4 4 44 29 108
55 64 27 123 58 131 69 22 31 19 177 -3 205 -15 17 -252 120 -605 262 l-48 19
0 -28z"/>
<path d="M2110 704 l0 -315 38 3 c35 3 37 5 36 36 l-2 32 34 -29 c127 -112
304 -7 304 181 0 82 -19 137 -64 183 -70 73 -165 82 -232 23 l-34 -30 0 116 0
116 -40 0 -40 0 0 -316z m279 56 c55 -55 63 -192 16 -264 -37 -55 -124 -58
-169 -6 -52 62 -60 174 -17 244 40 64 119 76 170 26z"/>
<path d="M2718 991 c-70 -23 -127 -96 -128 -163 0 -26 3 -28 39 -28 35 0 39 3
44 30 10 48 36 79 77 91 54 16 104 4 134 -32 58 -69 6 -159 -93 -159 -29 0
-31 -3 -31 -35 0 -33 2 -35 35 -35 20 0 49 -7 65 -15 79 -41 63 -156 -26 -185
-72 -24 -145 11 -165 81 -11 37 -15 39 -51 39 -34 0 -38 -3 -38 -25 0 -68 66
-145 142 -166 90 -24 204 9 250 73 18 26 23 46 23 95 0 55 -3 65 -29 92 -16
17 -38 33 -48 37 -25 8 -23 19 7 32 37 17 65 70 65 122 0 57 -34 110 -87 136
-42 20 -143 28 -185 15z"/>
<path d="M1719 832 c-45 -23 -59 -37 -83 -85 -54 -105 -33 -243 47 -314 96
-84 277 -59 332 48 22 41 19 49 -20 49 -29 0 -43 -8 -74 -40 -34 -36 -43 -40
-87 -40 -81 0 -144 57 -144 130 0 19 6 20 171 20 l172 0 -6 58 c-5 61 -32 125
-64 154 -60 54 -162 63 -244 20z m186 -74 c20 -19 38 -47 41 -65 l7 -33 -132
0 c-83 0 -131 4 -131 10 0 25 30 78 55 98 20 16 42 22 76 22 42 0 55 -5 84
-32z"/>
<path d="M910 835 c0 -13 40 -160 106 -392 l15 -53 48 0 49 0 53 190 c29 105
56 187 59 183 4 -5 26 -80 50 -168 58 -219 51 -205 104 -205 41 0 45 2 55 33
21 65 121 414 121 421 0 4 -17 6 -37 4 l-38 -3 -49 -182 c-27 -101 -51 -182
-52 -180 -2 2 -25 84 -52 182 l-49 180 -51 3 -51 3 -14 -48 c-8 -26 -31 -108
-52 -180 -22 -73 -41 -133 -44 -133 -3 0 -24 71 -45 158 -52 211 -48 202 -91
202 -25 0 -35 -4 -35 -15z"/>
</g>
</svg>
